<?xml version="1.0" encoding="UTF-8" standalone="no"?>
<!-- Created with Inkscape (http://www.inkscape.org/) -->

<svg
   width="8"
   height="8"
   viewBox="0 0 8 8"
   version="1.1"
   id="svg1"
   xmlns="http://www.w3.org/2000/svg"
   xmlns:svg="http://www.w3.org/2000/svg">
  <defs
     id="defs1" />
  <g
     id="layer1">
    <rect
       style="fill:#fa6000;fill-opacity:1"
       id="rect1"
       width="1"
       height="1"
       x="0"
       y="0" />
    <rect
       style="fill:#fa6000;fill-opacity:1"
       id="rect1-5"
       width="1"
       height="1"
       x="1"
       y="0" />
    <rect
       style="fill:#fa6000;fill-opacity:1"
       id="rect1-7"
       width="1"
       height="1"
       x="0"
       y="1" />
    <rect
       style="fill:#fa6000;fill-opacity:1"
       id="rect1-6"
       width="1"
       height="1"
       x="2"
       y="0" />
    <rect
       style="fill:#fa6000;fill-opacity:1"
       id="rect1-61"
       width="1"
       height="1"
       x="0"
       y="2" />
    <rect
       style="fill:#fa6000;fill-opacity:1"
       id="rect1-2"
       width="1"
       height="1"
       x="1"
       y="1" />
    <rect
       style="fill:#fa6000;fill-opacity:1"
       id="rect1-75"
       width="1"
       height="1"
       x="2"
       y="2" />
    <rect
       style="fill:#fa6000;fill-opacity:1"
       id="rect1-8"
       width="1"
       height="1"
       x="3"
       y="3" />
    <rect
       style="fill:#fa6000;fill-opacity:1"
       id="rect1-612"
       width="1"
       height="1"
       x="4"
       y="4" />
    <rect
       style="fill:#fa6000;fill-opacity:1"
       id="rect1-9"
       width="1"
       height="1"
       x="5"
       y="5" />
    <rect
       style="fill:#fa6000;fill-opacity:1"
       id="rect1-4"
       width="1"
       height="1"
       x="6"
       y="6" />
    <rect
       style="fill:#fa6000;fill-opacity:1"
       id="rect1-0"
       width="1"
       height="1"
       x="3"
       y="0" />
    <rect
       style="fill:#fa6000;fill-opacity:1"
       id="rect1-54"
       width="1"
       height="1"
       x="0"
       y="3" />
    <rect
       style="fill:#fa6000;fill-opacity:1"
       id="rect1-69"
       width="1"
       height="1"
       x="0"
       y="4" />
    <rect
       style="fill:#fa6000;fill-opacity:1"
       id="rect1-52"
       width="1"
       height="1"
       x="1"
       y="2" />
    <rect
       style="fill:#fa6000;fill-opacity:1"
       id="rect1-44"
       width="1"
       height="1"
       x="2"
       y="1" />
    <rect
       style="fill:#fa6000;fill-opacity:1"
       id="rect1-3"
       width="1"
       height="1"
       x="2"
       y="3" />
    <rect
       style="fill:#fa6000;fill-opacity:1"
       id="rect1-20"
       width="1"
       height="1"
       x="3"
       y="4" />
    <rect
       style="fill:#fa6000;fill-opacity:1"
       id="rect1-26"
       width="1"
       height="1"
       x="4"
       y="3" />
    <rect
       style="fill:#fa6000;fill-opacity:1"
       id="rect1-50"
       width="1"
       height="1"
       x="5"
       y="4" />
    <rect
       style="fill:#fa6000;fill-opacity:1"
       id="rect1-1"
       width="1"
       height="1"
       x="4"
       y="5" />
    <rect
       style="fill:#fa6000;fill-opacity:1"
       id="rect1-22"
       width="1"
       height="1"
       x="5"
       y="6" />
    <rect
       style="fill:#fa6000;fill-opacity:1"
       id="rect1-615"
       width="1"
       height="1"
       x="6"
       y="5" />
    <rect
       style="fill:#fa6000;fill-opacity:1"
       id="rect1-09"
       width="1"
       height="1"
       x="6"
       y="7" />
    <rect
       style="fill:#fa6000;fill-opacity:1"
       id="rect1-11"
       width="1"
       height="1"
       x="7"
       y="6" />
    <rect
       style="fill:#fa6000;fill-opacity:1"
       id="rect1-76"
       width="1"
       height="1"
       x="4"
       y="0" />
    <rect
       style="fill:#fa6000;fill-opacity:1"
       id="rect1-81"
       width="1"
       height="1"
       x="3"
       y="1" />
    <rect
       style="fill:#fa6000;fill-opacity:1"
       id="rect1-096"
       width="1"
       height="1"
       x="1"
       y="3" />
    <rect
       style="fill:#fa6000;fill-opacity:1"
       id="rect1-85-4"
       width="1"
       height="1"
       x="3"
       y="2" />
    <rect
       style="fill:#fa6000;fill-opacity:0.74574"
       id="rect1-69-2"
       width="1"
       height="1"
       x="1"
       y="4" />
    <rect
       style="fill:#fa6000;fill-opacity:0.74574"
       id="rect1-69-2-7"
       width="1"
       height="1"
       x="0"
       y="5" />
    <rect
       style="fill:#fa6000;fill-opacity:0.74574"
       id="rect1-69-2-6"
       width="1"
       height="1"
       x="4"
       y="1" />
    <rect
       style="fill:#fa6000;fill-opacity:0.74574"
       id="rect1-69-2-61"
       width="1"
       height="1"
       x="5"
       y="0" />
    <rect
       style="fill:#fa6000;fill-opacity:0.74574"
       id="rect1-69-2-2"
       width="1"
       height="1"
       x="7"
       y="7" />
    <rect
       style="fill:#fa6000;fill-opacity:0.24854"
       id="rect1-69-2-75"
       width="1"
       height="1"
       x="5"
       y="1" />
    <rect
       style="fill:#fa6000;fill-opacity:0.24854"
       id="rect1-69-2-75-8"
       width="1"
       height="1"
       x="4"
       y="2" />
    <rect
       style="fill:#fa6000;fill-opacity:0.24854"
       id="rect1-69-2-75-6"
       width="1"
       height="1"
       x="6"
       y="0" />
    <rect
       style="fill:#fa6000;fill-opacity:0.24854"
       id="rect1-69-2-75-3"
       width="1"
       height="1"
       x="2"
       y="4" />
    <rect
       style="fill:#fa6000;fill-opacity:0.24854"
       id="rect1-69-2-75-7"
       width="1"
       height="1"
       x="1"
       y="5" />
    <rect
       style="fill:#fa6000;fill-opacity:0.24854"
       id="rect1-69-2-75-0"
       width="1"
       height="1"
       x="0"
       y="6" />
  </g>
</svg>
